<svg xmlns="http://www.w3.org/2000/svg" viewBox="0 0 1920 1080"><defs><style>.cls-1{fill:#c8e690;}.cls-2{fill:#d1e099;}.cls-3{fill:#77b188;}.cls-4{fill:#5da478;}.cls-5{fill:#53966a;}.cls-6{fill:#50936a;}.cls-7{fill:#417453;}.cls-8{fill:#2d6349;}.cls-9{fill:none;stroke:#2d6349;stroke-miterlimit:10;stroke-width:3px;}.cls-10{fill:#14483c;}.cls-11{fill:#0b3835;}.cls-12{fill:#06292f;}</style></defs><title>Zeichenfläche 1</title><g id="Ebene_1" data-name="Ebene 1"><rect class="cls-1" width="1920" height="1080"/></g><g id="Ebene_3" data-name="Ebene 3"><path class="cls-2" d="M0,248s9-9,24-5c0,0,8-36,50-28,0,0-4-47,34-47,0,0-13-41,7-45,0,0-17-62,68-64,0,0,14-33,39-37,0,0,15-13,51-4,0,0,37,6,48,24,0,0,25,12,31,22,0,0,18,0,28,28,0,0,10,0,15,18,0,0,8,14,37-8,0,0,31-6,44,19,0,0,18-2,28-14,0,0,8-15,20-16,0,0,9-10,27-2,0,0,17,9,16,0s21-11,21-11,17-6,32,39c0,0,45-8,30,62,0,0,13-5,28,9,0,0,7-11,20-8,0,0,5-13,27-6s20,13,20,13,14-20,31,5c0,0,107-18,54,33,0,0,28,34,18,59,0,0,103-77,97,35,0,0,34,76,77,33s143,64,143,64L985,533,0,506V248"/><path class="cls-3" d="M1503,467l-81.27,73.15c-52.19-1-104.73-.15-104.73-.15-22-13,46-23,46-23l26-24h-66l-30.5-2.69S1286,515,1314,507s9,14-37,18,57,28,57,28l-64.26,48.5h0C1146.14,585.52,908.29,555,895,555H877l2-76.5,2.18-85.83S910,368,949,379c0,0,90,22,118,1,0,0,88,39,110,37,0,0,108-22,115-36,0,0,64.28,3.43,91.28,19.81A37.25,37.25,0,0,1,1389,405C1411,425,1503,467,1503,467Z"/><path class="cls-1" d="M1421.73,540.15,1343,611s-29.45-3.84-73.26-9.5L1334,553s-103-24-57-28,74-32,46-24-30.5-10.69-30.5-10.69L1304,490l-1-48h16l2,51h68l-26,24s-68,10-46,23C1317,540,1369.54,539.16,1421.73,540.15Z"/><path class="cls-4" d="M0,337s71-4,83-22l28-14,20-26h46s4,18,38,0h20l22-22h54l60-44h14s74-28,86-44l86,48s28,18,72,12l106,94s59,23,75,13c0,0,101,79,123,117,5.06,8.75,29.34,40-13,62C778.36,584.54,399,693,399,693L0,589Z"/><path class="cls-4" d="M1920,170V578s-159.46,18.51-212,11c-28-4-111-12-111-12-132,4-94-16-94-16s38,0,20-12c-8.48-5.66-54.74-8-101.27-8.85-52.19-1-82.22,13.22-104.73-.15-32-19,40.27-15.49,46-27,2.32-4.66-7.71-10.06-12-13-6-4.08-28-7-28-7l-30.5-2.69L1243.44,486,1187,481s60-44,74-38l58-1s40.1-32.88,64.28-41.19A33.71,33.71,0,0,1,1391,399c22-2,84-32,86-44l42-10V327s36-6,48-18l60-38V253l26-14,16-36,76-38,90-12Z"/><path class="cls-5" d="M1313,527c8-4,30.45-6,30.45-6l19.55-8s14-14,26-14,33-18,33-18l7,8h17l33-17s-15,29-20,30,24-15,30-12,37-18,37-18l-23,24v6l30-21s-27,27-9,30,66-39,66-39-33,35-25,44,86-44,86-44l8,7,33-24-7,34,32-12-10,32s35-18,52-3c0,0,33-27,46-23s78,7,78,7l25-10h12l-46,98c-52.43-2.4-105.12,9.76-158,11-85,2-79-13-119-12-111.25,2.78-105-14-94-16,8.17-4.52,17.83-10.48,16.81-13.33-.36-1-2.07-1.67-5.81-1.67-54.08,0-110.91-8.78-145-3C1310,553,1301,533,1313,527Z"/><path class="cls-6" d="M1334,553l-64.26,48.5h0L1175,673,0,661V337s100-12,131-62l33-4,13,4s2,14,36-4l22,4s8.42,13.91,19,21c9.71,6.51,18,8,25,19l24,5,32-3,8-10,30-3s26,51,84,11l72-24,62,24s10,38,50,42l18,20v14h10l16,20s38,4,52,22h54s10,24,26,24c0,0,28-18,50,28a77.43,77.43,0,0,1,12-6.5c13.2-5.9,35.81-12.43,60-3.5l56-8,50,2,40,6s54,28,88,10c0,0,9-9,33-9s37.44,10,37.44,10l56.56-9s-4.63,14.79,23,24c33,11,0,20-46,24S1334,553,1334,553Z"/><path class="cls-7" d="M210,362c-49,2-7,24-7,24l6,10-30-13c-46-46-102,22-102,22H0V839l1920,94V480c0,21-41,43-41,43l12,17-14,27s-18,2-40,2a25.13,25.13,0,0,0-9.79,2.47C1803.67,581.81,1769,621,1769,621H1643c-54-21-108-8-108-8-10-30-48-12-48-12-34-12-22-82-22-82l-54-10-40,31-92,27-48-27h-32s10-25-36-33-44,33-44,33-68,1-90,11-69,0-69,0l-85-11-22-37c-22-16-80-10-80-10l-10-24-64-14-82-6-20,8c-16,28-34,0-34,0V433l-12-28-66-16H449l-10-17-58,7-3-7c42-22,19-18.33-19-17-86,3,0,16,0,16l-2,10-70.47,5.42L227,391l-1-11s11,1,29-21C264.39,347.52,216.22,361.75,210,362Z"/><path class="cls-8" d="M0,401l61,10s30,28,50,32l48-10s20-40,98-32l20,20,10,32-12,36s30,42,90,40c0,0,10-28,36-28s70,10,70,10l54-6,24,14a138.49,138.49,0,0,1,52-14c30-2,62,35,62,35s52,33,80,33,60,12,80,38l42,16,10,20h20s8-22,32-22l52-18,24-67s-128-29-43-39c30.33-3.57,54.85-12.23,87-12,57.94.42,118.14,13.71,122,24,6,16-82,40-110,40l-14,32,4,24,74-8,58,16,52-14,38,26s-12,44,21,52,28-43,47-36c52.55,19.36,24,34,50,37,0,0,42,45,110,43s140-12,140-12l132,12,64-24s2-28,76-28h9V891H0Z"/><path class="cls-8" d="M1095.76,547.49S1069,575,1045,578"/><path class="cls-9" d="M1013,521s-70,4-53,26,11,46-3,48"/><path class="cls-10" d="M0,523s55-16,69,0,0,17,0,17,14,65,50,71h26s32.74-40.24,36-62c3-20,77,13,77,13s22,44,38,49h53l44,12s50-22,106-16l36,16h12l42,26s-24-28,18-24c9.7.92,28.28-4.55,35-4,22.38,1.82,24,5,24,5s23,19-19,23l48,14s-6-24,12-20c4.11.91,10.63-3.81,16-3,18.16,2.73,39.09,11.56,46,24,5,9-20,13-20,13s66,12,70,32,70,48,70,48-35-31,14-22c8.09,1.49,27.92-6.83,45-7,25.28-.25,46.94,8.26,35,19l-10,10s78,14,100,0l100,6,32-20,44-2,14-12,58,6,10,28-12,30,12,22h22l28,16h106s-34-30,10-36c10.23-1.4,25.82-9.17,36-9,33.58.58,58,15,58,15s26,24,0,30h74l52-44,48-14,10,48,24,10s44-32,38-40-45-27,46-35c0,0,26-3,8,21l18-20V729l11-16v367L0,1081Z"/><path class="cls-11" d="M0,717l57,30,76,16s50,18,72,10,54-36,54-36l12-20s-110-2-12-32c16.94-5.19,20.85-13.07,39-16,29-4.69,69.15,1.23,63,16-10,24-28,22-28,22l-34,8,2,9h52l54,17s78-4,102-17,86,29,86,29-2,54,80,58l48,30h28l10,30,48,56,64-20,40,4,62,50-15,42,37-12V975l28-26,52-1-4-13s-54-18,0-26c17.25-2.56,40.48-1.56,40,8-.21,4.22-22.69,9.76-23,12-7,50,37-28,37-28l14-30s18.15-16.13,31-26c8.19-6.29,5-26,19-26,36,0,73-2,73,32,0,7.57-4,34-4,34s5.57,35.26,13,44c10.42,12.27,58,28,58,28s4.42,19.73,10,20c15.6.74,25.85-41.37,40-48,14.49-6.79,64,0,64,0l475-10v161L0,1081Z"/><path class="cls-12" d="M0,861H55s36,8,50,22L89,599s-23.5,40.5-16.5,61.5,9,45,9,45l6,27-11-16s-11,8-5,29,16,38,15,42c0,0-16-24-19-37s-13-1-6,73c0,0-15-40-5-78,0,0,16.59-39.9,17-44,1-10-4-24-4-24s-14,19-10,28,8,29,8,29l-7,6s-1-22-8-28,9-35,9-35-10-50,7-79,8-118,8-118l-16-107,4-48s11-12,8,48l3-26,7,2,6,61,1-30,7,8,4,47,4-10,5,2s-14,142,7,196c0,0,0,43,9,59,0,0,43,28,53,65,0,0,12,15,9,31s-29,25-29,25l-1-5s24-13,23-17,3-20-6-23c0,0-8,42-3,68,0,0,9,21,9,39l-3,1s-4-29-9-33-8-61-2-81c0,0-26-47-38-44l16,165,14,9s25,17,38,17c0,0,77,0,99,21s11,52,11,52l-9,5,18,36v14l24,37S486,1061,493,1032c1.57-6.48,8.54-11.9,0-15-29.65-10.76-111.1-7.46-71.5-45.5,8.08-7.77,29.73-7.17,42.5-22.5,15-18,47.94-15.15,69-16,17.36-.7,21.48,10,35,13,44.12,9.79,54.74,40.2,26.5,46.5-20.87,4.66-45.75,12.25-49.5,23.5-7,21-3,35-3,35l112.5-28.5,56-73s49-1,67-14,92-28,92-28l4-49s-20-3-19-14,8-38,19-36c0,0-5-10,5-13,0,0,11-5,10,12,0,0,12,5,10-2s-8-14-8-14l8-1s14,12,12,17-11,10-15,11c0,0,11,59,7,63S900,919,900,919l-9-3-3.5-35.5-7,30h36l20,6L988,952s5,9-4,35l1,19,32,19,63,12,66,44h146l37-22h28l12-16v-14l42-23V975l30-49,39-1,62-35,104-31,13-16,31-7,49,34,33-15,32-2h68l36-31,12-1v259L0,1081Z"/><path class="cls-5" d="M1911,282l-40-24-53,6s16-28-6-16c-9.11,5-25.43,14.06-41.42,23C1748,283.65,1726,296,1726,296v-5s19-21,13-23l-20,13s-5-4,0-7,25-20,26-24,5-18,5-18l19-22,4-14-37,28,1-21,12-30,14-18s35-17,47-13,33,7,33,7l21,4,36,13,20-1V322Z"/><path class="cls-5" d="M634,264s-4.3-17.57-5-23c-.55-4.32,0-16,0-16s-27,1-35,0l26,21Z"/><polygon class="cls-5" points="735 319 776.67 325.33 788 332 809.82 332 775 361 735 319"/><path class="cls-5" d="M362,237l109-72,88,49-15-2-25-14-39-21s19,25,27,29,10,27,10,27,15,14,16,21a83.58,83.58,0,0,0,3,13l-5-2s-18-16-26-22-14-6-14-6-2,9,5,14-1,8-1,8l1,6s-36-9-18,10c3.95,4.17-13.45,9.29-9,10a35.39,35.39,0,0,1,21,12s-12.2,3.25-24,2c-7.52-.79-13.72,4.67-18,7-11,6-20,16-21,16h-1l-18-22-48-26-54-19,65-46Z"/><path class="cls-12" d="M827,923l5-58s11.29-.34,8-14-3-38-13-36c0,0,5-11-5-13s-10,12-10,12-21-4-14,27v47s6,17,2,45h9l5.4-40.2,2.6.2,5,38h10Z"/></g></svg>