<svg id="Ebene_2" data-name="Ebene 2" xmlns="http://www.w3.org/2000/svg" viewBox="0 0 476 476"><defs><style>.cls-1{fill:#d9b64e;}.cls-2,.cls-4{fill:#fff;}.cls-2,.cls-3,.cls-5{stroke:#fff;stroke-miterlimit:10;}.cls-5{fill:none;stroke-width:3px;}</style></defs><title>Kompass</title><path class="cls-1" d="M935,746.5a237.49,237.49,0,1,1,167.94-69.56A235.94,235.94,0,0,1,935,746.5Z" transform="translate(-697 -271)"/><path d="M935,272a236.17,236.17,0,1,1-92.25,18.62A235.64,235.64,0,0,1,935,272m0-1c-131.44,0-238,106.56-238,238S803.56,747,935,747s238-106.56,238-238S1066.44,271,935,271Z" transform="translate(-697 -271)"/><path d="M935.5,726.5a218,218,0,1,1,154.15-63.85A216.6,216.6,0,0,1,935.5,726.5Z" transform="translate(-697 -271)"/><path d="M935.5,291a216.84,216.84,0,1,1-84.66,17.09A216.15,216.15,0,0,1,935.5,291m0-1C814.83,290,717,387.83,717,508.5S814.83,727,935.5,727,1154,629.17,1154,508.5,1056.17,290,935.5,290Z" transform="translate(-697 -271)"/><polygon class="cls-2" points="238.5 236.5 357.5 236.5 238.5 222.5 238.5 236.5"/><polygon class="cls-3" points="237.5 237.5 356.5 237.5 237.5 251.5 237.5 237.5"/><polygon class="cls-2" points="237.5 237.5 118.5 237.5 237.5 223.5 237.5 237.5"/><polygon class="cls-3" points="238.5 238.5 119.5 238.5 238.5 252.5 238.5 238.5"/><polygon class="cls-2" points="238 238.32 238.65 357.32 252 238.25 238 238.32"/><polygon class="cls-3" points="237 237.33 237.65 356.33 223 237.4 237 237.33"/><path class="cls-4" d="M956.6,329.55c-3.84.42-5.1,1-5.28,3.78-.06,1.92-.18,4.44-.18,10v24.06h-2.28L923.18,336v15c0,5.4.18,8.1.3,9.84.12,3.06,1.62,4,5.94,4.32v1.68H914.84v-1.68c3.72-.3,5.16-1.2,5.4-4.14.18-1.92.3-4.62.3-10.08v-15.3a5.23,5.23,0,0,0-1.2-4c-1.14-1.5-2.4-1.86-5.34-2.16v-1.68h9l25.44,30.18v-14.7c0-5.58-.12-8.16-.3-10-.18-2.7-1.56-3.54-6.36-3.84v-1.68H956.6Z" transform="translate(-697 -271)"/><path class="cls-4" d="M944.12,665.05c-1-4-2.94-7.92-8.22-7.92-4.68,0-6.48,3.3-6.48,6.48,0,4.32,2.88,6.42,7.62,8.82s10.32,5.16,10.32,11.94c0,6.36-5.4,11.4-13.14,11.4a30.41,30.41,0,0,1-9.24-1.86c-.42-1.5-1.2-6.42-1.62-9.24l1.86-.48c1,3.72,3.66,9.36,9.84,9.36,4.56,0,7.2-2.82,7.2-7.14,0-4.5-3.12-6.54-7.74-9-3.9-2.1-9.9-5-9.9-11.88,0-5.76,4.26-10.5,12.18-10.5a54.91,54.91,0,0,1,8.22,1c.24,2.16.48,4.74,1,8.64Z" transform="translate(-697 -271)"/><path class="cls-4" d="M1118.47,519.33c-.36,1.56-2,7.74-2.58,9.54h-29.16v-1.68c5.58-.42,6-1,6-5.88v-23.7c0-5.34-.66-5.64-5.16-6.06v-1.68h18.36c5.64,0,8-.06,8.7-.12.06,1.5.3,6,.54,9.18l-1.8.3a20,20,0,0,0-1.8-4.56c-1-2-2.34-2.4-5.94-2.4h-5.7c-1.86,0-2,.18-2,1.92v13.26h6.66c4.5,0,4.8-.9,5.52-5H1112v12.36h-1.86c-.78-4.32-1.26-4.92-5.58-4.92H1098v11.94c0,4.2,1.32,4.56,4.32,4.62h5.58c3.66,0,4.26-.54,5.58-2.1a25.73,25.73,0,0,0,3.24-5.52Z" transform="translate(-697 -271)"/><path class="cls-4" d="M797.1,491.55c-4.2.6-4.8,1.08-6.42,6-2,6-6.78,21.24-10.08,32h-2c-3.12-9.36-7.14-20.94-10.26-29.82-3.48,10.32-7,20.58-10.14,29.82h-2c-3-10.32-6.42-21.54-9.66-32-1.56-4.86-2.22-5.52-6.12-5.94v-1.68h14.82v1.68c-4.44.48-4.56,1.14-3.72,4.14,2.34,8.1,4.74,16.08,7.2,24.54,3.3-9.54,6.9-20,10-29.82h1.92c3.36,10.2,6.72,19.68,10.2,29.88,2.52-8,5.94-18.66,7.26-23.88.9-3.48.42-4.26-4.68-4.86v-1.68H797.1Z" transform="translate(-697 -271)"/><circle class="cls-5" cx="238.5" cy="237.5" r="126"/><polygon class="cls-2" points="237.5 236.5 237.5 117.5 223.5 236.5 237.5 236.5"/><polygon class="cls-3" points="238.5 237.5 238.5 118.5 252.5 237.5 238.5 237.5"/><polygon class="cls-2" points="235.41 236.74 298.15 174 228.03 229.36 235.41 236.74"/><polygon class="cls-3" points="235.41 237.8 298.15 175.06 242.79 245.18 235.41 237.8"/><polygon class="cls-2" points="238.94 236.91 301.68 299.65 246.32 229.53 238.94 236.91"/><polygon class="cls-3" points="237.88 236.91 300.63 299.65 230.5 244.29 237.88 236.91"/><polygon class="cls-2" points="235.24 242.27 172.5 179.53 227.86 249.65 235.24 242.27"/><polygon class="cls-3" points="236.3 242.27 173.56 179.53 243.68 234.89 236.3 242.27"/><polygon class="cls-2" points="237.77 237.44 175.03 300.18 245.15 244.82 237.77 237.44"/><polygon class="cls-3" points="237.77 236.38 175.03 299.13 230.39 229 237.77 236.38"/><circle class="cls-1" cx="238" cy="237" r="35.5"/><path d="M935,473a35,35,0,1,1-35,35,35,35,0,0,1,35-35m0-1a36,36,0,1,0,36,36,36,36,0,0,0-36-36Z" transform="translate(-697 -271)"/><circle class="cls-1" cx="238" cy="237" r="22.5"/><path d="M935,486a22,22,0,1,1-22,22,22,22,0,0,1,22-22m0-1a23,23,0,1,0,23,23,23,23,0,0,0-23-23Z" transform="translate(-697 -271)"/><path class="cls-4" d="M1066,391.64c-1.92.21-2.55.51-2.64,1.89,0,1-.09,2.22-.09,5v12h-1.14l-12.84-15.69v7.5c0,2.7.09,4.05.15,4.92.06,1.53.81,2,3,2.16v.84h-7.29v-.84c1.86-.15,2.58-.6,2.7-2.07.09-1,.15-2.31.15-5V394.7a2.61,2.61,0,0,0-.6-2c-.57-.75-1.2-.93-2.67-1.08v-.84h4.5l12.72,15.09v-7.35c0-2.79-.06-4.08-.15-5-.09-1.35-.78-1.77-3.18-1.92v-.84H1066Z" transform="translate(-697 -271)"/><path class="cls-4" d="M1084,405.53c-.18.78-1,3.87-1.29,4.77h-14.58v-.84c2.79-.21,3-.48,3-2.94V394.67c0-2.67-.33-2.82-2.58-3v-.84h9.18c2.82,0,4,0,4.35-.06,0,.75.15,3,.27,4.59l-.9.15a10,10,0,0,0-.9-2.28c-.48-1-1.17-1.2-3-1.2h-2.85c-.93,0-1,.09-1,1v6.63H1077c2.25,0,2.4-.45,2.76-2.49h.93v6.18h-.93c-.39-2.16-.63-2.46-2.79-2.46h-3.3v6c0,2.1.66,2.28,2.16,2.31h2.79c1.83,0,2.13-.27,2.79-1.05a12.87,12.87,0,0,0,1.62-2.76Z" transform="translate(-697 -271)"/><path class="cls-4" d="M1048.94,620.39c-.51-2-1.47-4-4.11-4a3,3,0,0,0-3.24,3.24c0,2.16,1.44,3.21,3.81,4.41s5.16,2.58,5.16,6c0,3.18-2.7,5.7-6.57,5.7a15.21,15.21,0,0,1-4.62-.93c-.21-.75-.6-3.21-.81-4.62l.93-.24c.51,1.86,1.83,4.68,4.92,4.68a3.32,3.32,0,0,0,3.6-3.57c0-2.25-1.56-3.27-3.87-4.5-2-1.05-5-2.52-5-5.94,0-2.88,2.13-5.25,6.09-5.25a27.45,27.45,0,0,1,4.11.51c.12,1.08.24,2.37.48,4.32Z" transform="translate(-697 -271)"/><path class="cls-4" d="M1068.71,630.53c-.18.78-1,3.87-1.29,4.77h-14.58v-.84c2.79-.21,3-.48,3-2.94V619.67c0-2.67-.33-2.82-2.58-3v-.84h9.18c2.82,0,4,0,4.35-.06,0,.75.15,3,.27,4.59l-.9.15a10,10,0,0,0-.9-2.28c-.48-1-1.17-1.2-3-1.2h-2.85c-.93,0-1,.09-1,1v6.63h3.33c2.25,0,2.4-.45,2.76-2.49h.93v6.18h-.93c-.39-2.16-.63-2.46-2.79-2.46h-3.3v6c0,2.1.66,2.28,2.16,2.31h2.79c1.83,0,2.13-.27,2.79-1.05a12.87,12.87,0,0,0,1.62-2.76Z" transform="translate(-697 -271)"/><path class="cls-4" d="M805.61,620.39c-.51-2-1.47-4-4.11-4a3,3,0,0,0-3.24,3.24c0,2.16,1.44,3.21,3.81,4.41s5.16,2.58,5.16,6c0,3.18-2.7,5.7-6.57,5.7a15.21,15.21,0,0,1-4.62-.93c-.21-.75-.6-3.21-.81-4.62l.93-.24c.51,1.86,1.83,4.68,4.92,4.68a3.32,3.32,0,0,0,3.6-3.57c0-2.25-1.56-3.27-3.87-4.5-1.95-1.05-4.95-2.52-4.95-5.94,0-2.88,2.13-5.25,6.09-5.25a27.45,27.45,0,0,1,4.11.51c.12,1.08.24,2.37.48,4.32Z" transform="translate(-697 -271)"/><path class="cls-4" d="M837.32,616.64c-2.1.3-2.4.54-3.21,3-1,3-3.39,10.62-5,16h-1c-1.56-4.68-3.57-10.47-5.13-14.91-1.74,5.16-3.51,10.29-5.07,14.91h-1c-1.5-5.16-3.21-10.77-4.83-16-.78-2.43-1.11-2.76-3.06-3v-.84h7.41v.84c-2.22.24-2.28.57-1.86,2.07,1.17,4,2.37,8,3.6,12.27,1.65-4.77,3.45-10,5-14.91h1c1.68,5.1,3.36,9.84,5.1,14.94,1.26-4,3-9.33,3.63-11.94.45-1.74.21-2.13-2.34-2.43v-.84h6.87Z" transform="translate(-697 -271)"/><path class="cls-4" d="M811.81,391.64c-1.92.21-2.55.51-2.64,1.89,0,1-.09,2.22-.09,5v12h-1.14L795.1,394.88v7.5c0,2.7.09,4.05.15,4.92.06,1.53.81,2,3,2.16v.84h-7.29v-.84c1.86-.15,2.58-.6,2.7-2.07.09-1,.15-2.31.15-5V394.7a2.61,2.61,0,0,0-.6-2c-.57-.75-1.2-.93-2.67-1.08v-.84H795l12.72,15.09v-7.35c0-2.79-.06-4.08-.15-5-.09-1.35-.78-1.77-3.18-1.92v-.84h7.41Z" transform="translate(-697 -271)"/><path class="cls-4" d="M841.42,391.64c-2.1.3-2.4.54-3.21,3-1,3-3.39,10.62-5,16h-1c-1.56-4.68-3.57-10.47-5.13-14.91-1.74,5.16-3.51,10.29-5.07,14.91h-1c-1.5-5.16-3.21-10.77-4.83-16-.78-2.43-1.11-2.76-3.06-3v-.84h7.41v.84c-2.22.24-2.28.57-1.86,2.07,1.17,4.05,2.37,8,3.6,12.27,1.65-4.77,3.45-10,5-14.91h1c1.68,5.1,3.36,9.84,5.1,14.94,1.26-4,3-9.33,3.63-11.94.45-1.74.21-2.13-2.34-2.43v-.84h6.87Z" transform="translate(-697 -271)"/><circle class="cls-4" cx="238.5" cy="111.5" r="2"/><path d="M935.5,381a1.5,1.5,0,1,1-1.5,1.5,1.5,1.5,0,0,1,1.5-1.5m0-1a2.5,2.5,0,1,0,2.5,2.5,2.5,2.5,0,0,0-2.5-2.5Z" transform="translate(-697 -271)"/><circle class="cls-4" cx="238.5" cy="111.5" r="2"/><path d="M935.5,381a1.5,1.5,0,1,1-1.5,1.5,1.5,1.5,0,0,1,1.5-1.5m0-1a2.5,2.5,0,1,0,2.5,2.5,2.5,2.5,0,0,0-2.5-2.5Z" transform="translate(-697 -271)"/></svg>